# Smooth Sphere with vertex normals
v 0.000000 0.000000 1.000000
v 0.723607 0.525725 0.447219
v -0.276388 0.850640 0.447219
v -0.894426 0.000000 0.447216
v -0.276388 -0.850640 0.447219
v 0.723607 -0.525725 0.447219
v 0.276388 0.850640 -0.447219
v -0.723607 0.525725 -0.447219
v -0.723607 -0.525725 -0.447219
v 0.276388 -0.850640 -0.447219
v 0.894426 0.000000 -0.447216
v 0.000000 0.000000 -1.000000

# Vertex normals (same as positions normalized)
vn 0.000000 0.000000 1.000000
vn 0.723607 0.525725 0.447219
vn -0.276388 0.850640 0.447219
vn -0.894426 0.000000 0.447216
vn -0.276388 -0.850640 0.447219
vn 0.723607 -0.525725 0.447219
vn 0.276388 0.850640 -0.447219
vn -0.723607 0.525725 -0.447219
vn -0.723607 -0.525725 -0.447219
vn 0.276388 -0.850640 -0.447219
vn 0.894426 0.000000 -0.447216
vn 0.000000 0.000000 -1.000000

# Faces with vertex normals
f 1//1 2//2 3//3
f 1//1 3//3 4//4
f 1//1 4//4 5//5
f 1//1 5//5 6//6
f 1//1 6//6 2//2
f 2//2 7//7 3//3
f 3//3 7//7 8//8
f 3//3 8//8 4//4
f 4//4 8//8 9//9
f 4//4 9//9 5//5
f 5//5 9//9 10//10
f 5//5 10//10 6//6
f 6//6 10//10 11//11
f 6//6 11//11 2//2
f 2//2 11//11 7//7
f 7//7 12//12 8//8
f 8//8 12//12 9//9
f 9//9 12//12 10//10
f 10//10 12//12 11//11
f 11//11 12//12 7//7